# Blender v2.79 (sub 0) OBJ File: 'keep.blend'
# www.blender.org
mtllib keep.mtl
v 0.000000 0.005409 -1.000000
v 0.000000 2.005409 -1.000000
v 0.951057 0.005409 -0.309017
v 0.951057 2.005409 -0.309017
v 0.587785 0.005409 0.809017
v 0.587785 2.005409 0.809017
v -0.587785 0.005409 0.809017
v -0.587785 2.005409 0.809017
v -0.951056 0.005409 -0.309017
v -0.951056 2.005409 -0.309017
v 0.000000 0.005409 -1.000000
v 0.000000 2.005409 -1.000000
v 0.951057 2.005409 -0.309017
v 0.951057 0.005409 -0.309017
v 0.951057 0.005409 -0.309017
v 0.951057 2.005409 -0.309017
v 0.587785 2.005409 0.809017
v 0.587785 0.005409 0.809017
v 0.587785 0.005409 0.809017
v 0.587785 2.005409 0.809017
v -0.587785 2.005409 0.809017
v -0.587785 0.005409 0.809017
v 0.951057 1.823967 -0.309017
v 0.000000 1.823967 -1.000000
v -0.951056 1.823967 -0.309017
v -0.587785 1.823967 0.809017
v 0.587785 1.823967 0.809017
v -0.587785 0.005409 0.809017
v -0.587785 2.005409 0.809017
v -0.951056 2.005409 -0.309017
v -0.951056 0.005409 -0.309017
v -0.951056 0.005409 -0.309017
v -0.951056 2.005409 -0.309017
v 0.000000 2.005409 -1.000000
v 0.000000 0.005409 -1.000000
v 0.000000 0.005409 -1.000000
v 0.951057 0.005409 -0.309017
v 0.587785 0.005409 0.809017
v -0.587785 0.005409 0.809017
v -0.951056 0.005409 -0.309017
vt 0.812469 0.771446
vt 0.509038 0.255220
vt 0.812469 0.255220
vt 0.735946 0.770682
vt 0.421658 0.235984
vt 0.735946 0.235984
vt 0.820296 0.776341
vt 0.476675 0.276992
vt 0.820296 0.276992
vt 0.460257 0.430859
vt 0.644390 0.297078
vt 0.828524 0.430859
vt 0.823494 0.772330
vt 0.457867 0.241003
vt 0.823494 0.241003
vt 0.818081 0.767797
vt 0.463280 0.252203
vt 0.818081 0.252203
vt 0.739378 0.369362
vt 0.644390 0.661704
vt 0.490697 0.550039
vt 0.509038 0.771446
vt 0.421658 0.770682
vt 0.476675 0.776341
vt 0.758191 0.647321
vt 0.530590 0.647321
vt 0.457867 0.772330
vt 0.463280 0.767797
vt 0.549403 0.369362
vt 0.798083 0.550039
vt 0.000000 0.000000
vt 0.000000 0.000000
vt 0.000000 0.000000
vt 0.000000 0.000000
vt 0.000000 0.000000
vt 0.000000 0.000000
vt 0.000000 0.000000
vt 0.000000 0.000000
vt 0.000000 0.000000
vt 0.000000 0.000000
vt 0.000000 0.000000
vt 0.000000 0.000000
vt 0.000000 0.000000
vt 0.000000 0.000000
vt 0.000000 0.000000
vt 0.000000 0.000000
vt 0.000000 0.000000
vt 0.000000 0.000000
vt 0.000000 0.000000
vt 0.000000 0.000000
vt 0.000000 0.000000
vt 0.000000 0.000000
vt 0.000000 0.000000
vt 0.000000 0.000000
vt 0.000000 0.000000
vt 0.000000 0.000000
vt 0.000000 0.000000
vt 0.000000 0.000000
vt 0.000000 0.000000
vt 0.000000 0.000000
vt 0.000000 0.000000
vt 0.000000 0.000000
vt 0.000000 0.000000
vt 0.000000 0.000000
vt 0.000000 0.000000
vt 0.000000 0.000000
vt 0.000000 0.000000
vt 0.000000 0.000000
vt 0.000000 0.000000
vt 0.000000 0.000000
vn 0.5878 0.0000 -0.8090
vn 0.9511 0.0000 0.3090
vn -0.0000 0.0000 1.0000
vn 0.0000 1.0000 0.0000
vn -0.9511 0.0000 0.3090
vn -0.5878 0.0000 -0.8090
vn 0.0000 -1.0000 0.0000
vn -0.5878 0.0000 0.8090
vn 0.5878 0.0000 0.8090
vn 0.9511 0.0000 -0.3090
vn 0.0000 0.0000 -1.0000
vn -0.9511 0.0000 -0.3090
usemtl Material.001
s off
f 12/1/1 14/2/1 11/3/1
f 16/4/2 18/5/2 15/6/2
f 20/7/3 22/8/3 19/9/3
f 25/10/4 26/11/4 27/12/4
f 29/13/5 31/14/5 28/15/5
f 33/16/6 35/17/6 32/18/6
f 37/19/7 39/20/7 40/21/7
f 12/1/1 13/22/1 14/2/1
f 16/4/2 17/23/2 18/5/2
f 20/7/3 21/24/3 22/8/3
f 27/12/4 23/25/4 24/26/4
f 24/26/4 25/10/4 27/12/4
f 29/13/5 30/27/5 31/14/5
f 33/16/6 34/28/6 35/17/6
f 40/21/7 36/29/7 37/19/7
f 37/19/7 38/30/7 39/20/7
usemtl Material.001_NONE
f 2/31/3 11/32/3 1/33/3
f 4/34/3 12/35/3 2/31/3
f 3/36/3 13/37/3 4/34/3
f 1/33/3 14/38/3 3/36/3
f 4/34/3 15/39/3 3/36/3
f 6/40/3 16/41/3 4/34/3
f 5/42/3 17/43/3 6/40/3
f 3/36/3 18/44/3 5/42/3
f 6/40/3 19/45/3 5/42/3
f 8/46/3 20/47/3 6/40/3
f 7/48/3 21/49/3 8/46/3
f 5/42/3 22/50/3 7/48/3
f 24/51/8 4/34/8 2/31/8
f 25/52/9 2/31/9 10/53/9
f 26/54/10 10/53/10 8/46/10
f 27/55/11 8/46/11 6/40/11
f 23/56/12 6/40/12 4/34/12
f 8/46/3 28/57/3 7/48/3
f 10/53/3 29/58/3 8/46/3
f 9/59/3 30/60/3 10/53/3
f 7/48/3 31/61/3 9/59/3
f 10/53/3 32/62/3 9/59/3
f 2/31/3 33/63/3 10/53/3
f 1/33/3 34/64/3 2/31/3
f 9/59/3 35/65/3 1/33/3
f 3/36/3 36/66/3 1/33/3
f 5/42/3 37/67/3 3/36/3
f 7/48/3 38/68/3 5/42/3
f 9/59/3 39/69/3 7/48/3
f 1/33/3 40/70/3 9/59/3
f 2/31/3 12/35/3 11/32/3
f 4/34/3 13/37/3 12/35/3
f 3/36/3 14/38/3 13/37/3
f 1/33/3 11/32/3 14/38/3
f 4/34/3 16/41/3 15/39/3
f 6/40/3 17/43/3 16/41/3
f 5/42/3 18/44/3 17/43/3
f 3/36/3 15/39/3 18/44/3
f 6/40/3 20/47/3 19/45/3
f 8/46/3 21/49/3 20/47/3
f 7/48/3 22/50/3 21/49/3
f 5/42/3 19/45/3 22/50/3
f 24/51/8 23/56/8 4/34/8
f 25/52/9 24/51/9 2/31/9
f 26/54/10 25/52/10 10/53/10
f 27/55/11 26/54/11 8/46/11
f 23/56/12 27/55/12 6/40/12
f 8/46/3 29/58/3 28/57/3
f 10/53/3 30/60/3 29/58/3
f 9/59/3 31/61/3 30/60/3
f 7/48/3 28/57/3 31/61/3
f 10/53/3 33/63/3 32/62/3
f 2/31/3 34/64/3 33/63/3
f 1/33/3 35/65/3 34/64/3
f 9/59/3 32/62/3 35/65/3
f 3/36/3 37/67/3 36/66/3
f 5/42/3 38/68/3 37/67/3
f 7/48/3 39/69/3 38/68/3
f 9/59/3 40/70/3 39/69/3
f 1/33/3 36/66/3 40/70/3
