# Blender v2.79 (sub 0) OBJ File: 'keepplane.blend'
# www.blender.org
mtllib keepplane2.mtl
v -1.000000 0.000000 -1.000000
v 1.000000 0.000000 -1.000000
v -1.000000 0.000000 0.000000
v 1.000000 0.000000 0.000000
v 0.000000 0.000000 -1.000000
v 0.000000 0.000000 0.000000
vt 0.997273 0.496010
vt 0.004619 0.996683
vt 0.002727 0.501149
vt 0.999011 0.500000
vt 0.000077 0.999924
vt 0.000077 0.500000
vt 0.999165 0.991544
vt 0.999011 0.999924
vn 0.0000 1.0000 0.0000
usemtl Material.001
s off
f 4/1/1 5/2/1 6/3/1
f 6/4/1 1/5/1 3/6/1
f 4/1/1 2/7/1 5/2/1
f 6/4/1 5/8/1 1/5/1
