# Blender v2.79 (sub 0) OBJ File: 'keep.blend'
# www.blender.org
mtllib keep.mtl
v -0.000000 0.000864 0.197221
v -0.000000 0.587035 0.197221
v -0.096018 0.000864 0.159555
v -0.096018 0.587035 0.159555
v -0.155361 0.000864 0.060944
v -0.155361 0.587035 0.060944
v -0.155361 0.000864 -0.060944
v -0.155361 0.587035 -0.060944
v -0.096018 0.000864 -0.159555
v -0.096018 0.587035 -0.159555
v 0.000000 0.000864 -0.197221
v 0.000000 0.587035 -0.197221
v 0.096018 0.000864 -0.159555
v 0.096018 0.587035 -0.159555
v 0.155360 0.000864 -0.060944
v 0.155360 0.587035 -0.060944
v 0.155360 0.000864 0.060945
v 0.155360 0.587035 0.060945
v 0.096018 0.000864 0.159555
v 0.096018 0.587035 0.159555
v -0.096018 0.587035 0.159555
v -0.000000 0.587035 0.197221
v -0.155361 0.587035 0.060944
v -0.155361 0.587035 -0.060944
v -0.096018 0.587035 -0.159555
v 0.000000 0.587035 -0.197221
v 0.096018 0.587035 -0.159555
v 0.155360 0.587035 -0.060944
v 0.155360 0.587035 0.060945
v 0.096018 0.587035 0.159555
v -0.096018 0.543857 0.159555
v -0.000000 0.543857 0.197221
v -0.155361 0.543857 0.060944
v -0.155361 0.543857 -0.060944
v -0.096018 0.543857 -0.159555
v 0.000000 0.543857 -0.197221
v 0.096018 0.543857 -0.159555
v 0.155360 0.543857 -0.060944
v 0.155360 0.543857 0.060945
v 0.096018 0.543857 0.159555
vt 0.527554 0.774147
vt 0.359010 0.185853
vt 0.527554 0.185853
vt 0.825324 0.772393
vt 0.656975 0.227607
vt 0.825324 0.227607
vt 0.596786 0.766969
vt 0.420448 0.279548
vt 0.596786 0.279548
vt 0.519846 0.784800
vt 0.351498 0.215201
vt 0.519846 0.215201
vt 0.675055 0.785783
vt 0.482895 0.214217
vt 0.675055 0.214217
vt 0.814416 0.781621
vt 0.645534 0.218379
vt 0.814416 0.218379
vt 0.665047 0.779923
vt 0.496165 0.233411
vt 0.665047 0.233411
vt 0.521743 0.763636
vt 0.345405 0.276215
vt 0.521743 0.276215
vt 0.657072 0.772709
vt 0.825616 0.772709
vt 0.657072 0.772709
vt 0.813698 0.763636
vt 0.637361 0.276215
vt 0.813698 0.276215
vt 0.653170 0.781915
vt 0.484627 0.184752
vt 0.653170 0.184752
vt 0.597198 0.364950
vt 0.707193 0.364950
vt 0.597198 0.654111
vt 0.515204 0.727139
vt 0.351944 0.763043
vt 0.351944 0.727139
vt 0.323381 0.773256
vt 0.492263 0.773256
vt 0.323381 0.773256
vt 0.476653 0.773256
vt 0.645534 0.773256
vt 0.476653 0.773256
vt 0.645534 0.773256
vt 0.814416 0.773256
vt 0.482895 0.765579
vt 0.675055 0.765579
vt 0.482895 0.765579
vt 0.320278 0.772393
vt 0.488627 0.772393
vt 0.320278 0.772393
vt 0.319986 0.772709
vt 0.488529 0.772709
vt 0.319986 0.772709
vt 0.488627 0.772393
vt 0.656975 0.772393
vt 0.656975 0.772393
vt 0.825324 0.772393
vt 0.488529 0.772709
vt 0.696946 0.329128
vt 0.775668 0.386323
vt 0.599640 0.628605
vt 0.574707 0.762668
vt 0.729683 0.714350
vt 0.729683 0.762668
vt 0.400136 0.765046
vt 0.539764 0.734072
vt 0.539764 0.765046
vt 0.500690 0.757846
vt 0.677197 0.732336
vt 0.677026 0.758290
vt 0.654811 0.706379
vt 0.501286 0.772102
vt 0.501286 0.706379
vt 0.620281 0.751749
vt 0.800323 0.718602
vt 0.800323 0.751749
vt 0.725060 0.721353
vt 0.446648 0.762332
vt 0.446648 0.721353
vt 0.748812 0.733805
vt 0.572474 0.769710
vt 0.572474 0.733805
vt 0.583999 0.763246
vt 0.736001 0.713772
vt 0.736001 0.763246
vt 0.496954 0.762237
vt 0.643533 0.701448
vt 0.643533 0.762237
vt 0.359010 0.774147
vt 0.420448 0.766969
vt 0.351498 0.784800
vt 0.482895 0.785783
vt 0.645534 0.781621
vt 0.496165 0.779923
vt 0.345405 0.763636
vt 0.825616 0.772709
vt 0.637361 0.763636
vt 0.484627 0.781915
vt 0.796180 0.420175
vt 0.830171 0.509531
vt 0.796180 0.598886
vt 0.707193 0.654111
vt 0.508210 0.598886
vt 0.508210 0.420175
vt 0.474220 0.509531
vt 0.515204 0.763043
vt 0.492263 0.773256
vt 0.814416 0.773256
vt 0.675055 0.765579
vt 0.805737 0.478866
vt 0.775668 0.571410
vt 0.696946 0.628605
vt 0.520918 0.571410
vt 0.490848 0.478866
vt 0.599640 0.329128
vt 0.520918 0.386323
vt 0.574707 0.714350
vt 0.400136 0.734072
vt 0.500862 0.731892
vt 0.654811 0.772102
vt 0.620281 0.718602
vt 0.725060 0.762332
vt 0.748812 0.769710
vt 0.583999 0.713772
vt 0.496954 0.701448
vn -0.3652 0.0000 0.9309
vn -0.8568 0.0000 0.5156
vn -1.0000 0.0000 0.0000
vn -0.8568 0.0000 -0.5156
vn -0.3652 0.0000 -0.9309
vn 0.3652 0.0000 -0.9309
vn 0.8568 0.0000 -0.5156
vn 1.0000 0.0000 0.0000
vn 0.0000 0.0000 1.0000
vn 0.8568 0.0000 0.5156
vn 0.3652 0.0000 0.9309
vn 0.0000 -1.0000 0.0000
vn 0.0000 1.0000 0.0000
usemtl Material.001
s off
f 2/1/1 3/2/1 1/3/1
f 4/4/2 5/5/2 3/6/2
f 6/7/3 7/8/3 5/9/3
f 8/10/4 9/11/4 7/12/4
f 10/13/5 11/14/5 9/15/5
f 12/16/6 13/17/6 11/18/6
f 14/19/7 15/20/7 13/21/7
f 16/22/8 17/23/8 15/24/8
f 20/25/9 29/26/9 30/27/9
f 18/28/10 19/29/10 17/30/10
f 20/31/11 1/32/11 19/33/11
f 15/34/12 17/35/12 7/36/12
f 24/37/10 35/38/10 25/39/10
f 18/40/9 28/41/9 29/42/9
f 16/43/9 27/44/9 28/45/9
f 14/46/9 26/47/9 27/44/9
f 12/48/9 25/49/9 26/50/9
f 10/51/9 24/52/9 25/53/9
f 4/54/9 22/55/9 21/56/9
f 8/57/9 23/58/9 24/52/9
f 6/59/9 21/60/9 23/58/9
f 2/61/9 30/27/9 22/55/9
f 34/62/13 33/63/13 39/64/13
f 22/65/6 31/66/6 21/67/6
f 28/68/3 39/69/3 29/70/3
f 25/71/11 36/72/11 26/73/11
f 21/74/7 33/75/7 23/76/7
f 29/77/4 40/78/4 30/79/4
f 26/80/1 37/81/1 27/82/1
f 23/83/8 34/84/8 24/85/8
f 30/86/5 32/87/5 22/88/5
f 27/89/2 38/90/2 28/91/2
f 2/1/1 4/92/1 3/2/1
f 4/4/2 6/59/2 5/5/2
f 6/7/3 8/93/3 7/8/3
f 8/10/4 10/94/4 9/11/4
f 10/13/5 12/95/5 11/14/5
f 12/16/6 14/96/6 13/17/6
f 14/19/7 16/97/7 15/20/7
f 16/22/8 18/98/8 17/23/8
f 20/25/9 18/99/9 29/26/9
f 18/28/10 20/100/10 19/29/10
f 20/31/11 2/101/11 1/32/11
f 19/102/12 1/103/12 3/104/12
f 3/104/12 5/105/12 19/102/12
f 5/105/12 7/36/12 17/35/12
f 19/102/12 5/105/12 17/35/12
f 7/36/12 9/106/12 13/107/12
f 9/106/12 11/108/12 13/107/12
f 13/107/12 15/34/12 7/36/12
f 24/37/10 34/109/10 35/38/10
f 18/40/9 16/110/9 28/41/9
f 16/43/9 14/46/9 27/44/9
f 14/46/9 12/111/9 26/47/9
f 12/48/9 10/112/9 25/49/9
f 10/51/9 8/57/9 24/52/9
f 4/54/9 2/61/9 22/55/9
f 8/57/9 6/59/9 23/58/9
f 6/59/9 4/4/9 21/60/9
f 2/61/9 20/25/9 30/27/9
f 33/63/13 31/113/13 39/64/13
f 31/113/13 32/114/13 40/115/13
f 39/64/13 31/113/13 40/115/13
f 39/64/13 38/116/13 34/62/13
f 38/116/13 37/117/13 35/118/13
f 37/117/13 36/119/13 35/118/13
f 35/118/13 34/62/13 38/116/13
f 22/65/6 32/120/6 31/66/6
f 28/68/3 38/121/3 39/69/3
f 25/71/11 35/122/11 36/72/11
f 21/74/7 31/123/7 33/75/7
f 29/77/4 39/124/4 40/78/4
f 26/80/1 36/125/1 37/81/1
f 23/83/8 33/126/8 34/84/8
f 30/86/5 40/127/5 32/87/5
f 27/89/2 37/128/2 38/90/2
