# Blender v2.79 (sub 0) OBJ File: 'wallstraight.blend'
# www.blender.org
mtllib wallstraight.mtl
v 0.500000 0.002249 -0.007000
v 0.500000 0.002249 0.007000
v -0.500000 0.002249 0.007000
v -0.500000 0.002251 -0.007000
v 0.500000 0.302249 -0.007000
v 0.500000 0.302249 0.007000
v -0.500000 0.302249 0.007000
v -0.500000 0.302249 -0.007000
vt 2.459438 0.472340
vt -1.472581 0.263619
vt 2.458844 0.263619
vt -1.411891 0.575081
vt 2.079051 0.510424
vt 2.078525 0.575081
vt 0.185773 0.995098
vt 0.000086 0.000086
vt 0.185773 0.000086
vt 2.244169 0.995213
vt -1.204785 0.009574
vt 2.244091 0.009295
vt 0.371633 0.999913
vt 0.185946 0.000086
vt 0.371633 0.000086
vt 2.218917 0.017216
vt -1.204148 0.991042
vt -1.204148 0.017216
vt -1.471987 0.472339
vt -1.411365 0.510424
vt 0.000086 0.999914
vt -1.204706 0.995491
vt 0.185946 0.995097
vt 2.218916 0.991042
vn -0.0000 -1.0000 0.0000
vn 0.0000 1.0000 0.0000
vn 1.0000 0.0000 0.0000
vn 0.0000 0.0000 1.0000
vn -1.0000 0.0000 0.0000
vn 0.0000 0.0000 -1.0000
vn 0.0000 -1.0000 -0.0001
usemtl Material
s off
f 2/1/1 4/2/1 1/3/1
f 8/4/2 6/5/2 5/6/2
f 5/7/3 2/8/3 1/9/3
f 6/10/4 3/11/4 2/12/4
f 7/13/5 4/14/5 3/15/5
f 5/16/6 4/17/6 8/18/6
f 2/1/7 3/19/7 4/2/7
f 8/4/2 7/20/2 6/5/2
f 5/7/3 6/21/3 2/8/3
f 6/10/4 7/22/4 3/11/4
f 7/13/5 8/23/5 4/14/5
f 5/16/6 1/24/6 4/17/6
